<?xml version="1.0" encoding="utf-8"?>
<!-- Generator: Adobe Illustrator 27.1.1, SVG Export Plug-In . SVG Version: 6.00 Build 0)  -->
<svg version="1.1" id="Layer_1" xmlns="http://www.w3.org/2000/svg" xmlns:xlink="http://www.w3.org/1999/xlink" x="0px" y="0px"
	 viewBox="0 0 88 88" style="enable-background:new 0 0 88 88;" xml:space="preserve">
<style type="text/css">
	.st0{fill:#C9C9C9;}
	.st1{fill:#FFFFFF;}
</style>
<rect class="st0" width="88" height="88"/>
<g id="Layer_2_00000145772590314042737910000017838076265278929571_">
	<g id="Layer_1-2">
		<path class="st1" d="M34.6,11.9l9.1,2.9l0.1,0.4c-8.6,0.4-16.6,4.6-21.7,11.5c-0.3,0-0.4-0.2-0.3-0.3c0.9-3.1,1.8-6.3,2.9-9.3
			c1-2.8,3.3-4.3,6-5.1L34.6,11.9z"/>
		<path class="st1" d="M76.9,33.5L74,42.5l-0.4,0.1C73.2,34,69,26,62.1,20.8c0.1-0.1,0.2-0.3,0.2-0.3c3.3,0.8,6.6,1.8,9.7,3
			c2.6,1.1,4.1,3.3,4.9,5.9V33.5z"/>
		<path class="st1" d="M13,54.2l3-9.1l0.3-0.1c0.4,8.6,4.6,16.6,11.4,21.7c0,0.3-0.2,0.4-0.3,0.3c-3.1-1-6.3-1.8-9.3-2.9
			c-2.8-1-4.3-3.3-5.1-6V54.2z"/>
		<path class="st1" d="M55.3,75.8l-9.1-2.9v-0.4C54.8,72.1,62.8,67.9,68,61c0.3,0,0.3,0.2,0.3,0.3c-0.9,3.1-1.8,6.3-2.9,9.3
			c-1,2.8-3.3,4.3-6,5.1L55.3,75.8z"/>
		<path class="st1" d="M45,69.9c-14.5-0.3-25.8-11.4-26-25.7c-0.3-14.2,10.9-26,25.1-26.3c0.3,0,0.7,0,1,0
			c14.2-0.1,25.7,11.3,25.8,25.5c0,0.1,0,0.3,0,0.4C70.9,58.2,59.6,69.5,45,69.9z M36.6,38c4.1,0.1,7.4-3.1,7.6-7.2
			c0-0.1,0-0.1,0-0.2c0.2-4.1-3-7.5-7.1-7.6c-0.1,0-0.2,0-0.3,0c-4.1-0.1-7.5,3.1-7.6,7.1c0,0.1,0,0.2,0,0.3
			c-0.1,4.1,3.2,7.4,7.2,7.5C36.5,38,36.6,38,36.6,38z M65.8,35.7c0-4.1-3.3-7.5-7.4-7.6c-4.1,0-7.5,3.3-7.6,7.4l0,0
			c0,4.1,3.3,7.5,7.4,7.6C62.4,43.1,65.7,39.8,65.8,35.7L65.8,35.7z M39.1,52c0-4.1-3.2-7.4-7.3-7.5c-0.1,0-0.1,0-0.2,0
			c-4.1,0-7.5,3.3-7.5,7.5s3.3,7.5,7.5,7.5c4.1,0.1,7.4-3.1,7.5-7.2C39.1,52.3,39.1,52.1,39.1,52z M53.1,49.7
			c-4.1,0-7.5,3.4-7.5,7.5c0,4.1,3.4,7.5,7.5,7.5c4.1,0,7.5-3.3,7.5-7.5c0.1-4.1-3.1-7.4-7.2-7.5C53.4,49.7,53.3,49.7,53.1,49.7z
			 M44.9,47.1c1.8,0,3.2-1.4,3.2-3.2c0-1.8-1.4-3.2-3.2-3.2l0,0c-1.8,0-3.2,1.4-3.2,3.2C41.7,45.6,43.1,47.1,44.9,47.1z"/>
	</g>
</g>
</svg>
