<?xml version="1.0" encoding="utf-8"?>
<!-- Generator: Adobe Illustrator 27.1.1, SVG Export Plug-In . SVG Version: 6.00 Build 0)  -->
<svg version="1.1" id="Layer_1" xmlns="http://www.w3.org/2000/svg" xmlns:xlink="http://www.w3.org/1999/xlink" x="0px" y="0px"
	 viewBox="0 0 88 88" style="enable-background:new 0 0 88 88;" xml:space="preserve">
<style type="text/css">
	.st0{fill:#C9C9C9;}
	.st1{fill:#FFFFFF;}
</style>
<rect class="st0" width="88" height="88"/>
<g id="Layer_2_00000047782906139467352060000001004525584775059894_">
	<g id="Layer_2-2">
		<path class="st1" d="M12.8,27.3c0.5-1.8,1.5-3.2,3.2-4c0.6-0.3,1.4-0.5,2.1-0.5c17.3,0,34.7,0,52,0c2.9,0.1,5.3,2.4,5.3,5.3
			c0,11.2,0,22.3,0,33.5c0,2.9-2.5,5.3-5.5,5.3c-14.6,0-29.1,0-43.7,0c-2.6,0-5.2-0.1-7.8,0c-2.6,0.1-4.9-1.6-5.6-4.1
			c0-0.1-0.1-0.2-0.1-0.3V27.3z M19.4,26.7c0.2,0.2,0.3,0.3,0.4,0.5l22.7,22.8c1.1,1.1,2.3,1.1,3.3,0c2.9-2.9,5.7-5.8,8.6-8.6
			c4.7-4.7,9.3-9.4,14-14c0.2-0.2,0.4-0.3,0.4-0.6L19.4,26.7z M19.4,63.2h49.5c-0.1-0.1-0.1-0.2-0.2-0.3c-5-5-9.9-10-14.9-14.9
			c-0.3-0.3-0.5-0.2-0.8,0c-1.5,1.5-3,3.1-4.6,4.6c-2.5,2.5-6.1,2.5-8.6,0c-1.5-1.5-3-3-4.4-4.5c-0.5-0.5-0.7-0.4-1.1,0
			c-4.8,4.8-9.6,9.7-14.4,14.5C19.7,62.8,19.6,63,19.4,63.2L19.4,63.2z M16.5,29.4v31c0.3-0.1,0.4-0.2,0.5-0.4
			c4.9-4.9,9.7-9.7,14.6-14.6c0.4-0.4,0.4-0.6,0-1c-4.9-4.9-9.7-9.7-14.6-14.6C16.9,29.7,16.8,29.5,16.5,29.4z M71.7,60.5v-31
			c-0.2,0.1-0.4,0.2-0.6,0.4c-4.8,4.8-9.7,9.7-14.5,14.5c-0.4,0.4-0.4,0.7,0,1.1c4.9,4.8,9.7,9.7,14.5,14.5
			C71.3,60.2,71.5,60.4,71.7,60.5z"/>
	</g>
</g>
</svg>
