<?xml version="1.0" encoding="utf-8"?>
<!-- Generator: Adobe Illustrator 27.1.1, SVG Export Plug-In . SVG Version: 6.00 Build 0)  -->
<svg version="1.1" id="Layer_1" xmlns="http://www.w3.org/2000/svg" xmlns:xlink="http://www.w3.org/1999/xlink" x="0px" y="0px"
	 viewBox="0 0 88 88" style="enable-background:new 0 0 88 88;" xml:space="preserve">
<style type="text/css">
	.st0{fill:#C9C9C9;}
	.st1{fill:#FFFFFF;}
</style>
<rect class="st0" width="88" height="88"/>
<g id="Layer_2_00000112624310062484975770000016447731454576731307_">
	<g id="Layer_1-2">
		<path class="st1" d="M32.6,11.3h22.8c0.3,0.1,0.5,0.1,0.8,0.1c1.8,0,3.6,0.2,5.4,0.5c5.8,1.1,10.1,4.1,12.7,9.5
			c1.3,2.9,2,6,1.9,9.2c0.1,8.4,0,16.9,0,25.3c0,1.9-0.2,3.8-0.6,5.6c-1.5,6.7-5.4,11.1-12,13.2c-3,0.8-6.2,1.2-9.3,1.1
			c-6.8,0.1-13.6,0.1-20.5,0c-2.5,0-4.9-0.2-7.3-0.6c-5-0.8-9.3-3.8-11.9-8.1c-1.7-3.2-2.7-6.7-2.7-10.3c-0.2-3.8-0.1-7.7-0.1-11.5
			c0-0.3,0-0.7-0.1-1v-1.5c0-0.4,0.1-0.8,0.1-1.1c-0.1-4.7,0-9.4,0.4-14.1c0.3-3.3,1.5-6.5,3.4-9.1c3.4-4.6,8.2-6.5,13.8-7
			C30.4,11.4,31.5,11.4,32.6,11.3z M44,70c3.8,0.1,7.5-0.1,11.3-0.1c1.8,0,3.6-0.2,5.4-0.5c4.6-1,7.7-3.7,9-8.3
			c0.5-2.2,0.8-4.4,0.7-6.7c0.1-5.3,0.1-10.7,0.1-16c0.1-3.5,0-7.1-0.4-10.6c-0.4-5.1-4.2-9.2-9.2-10c-2.5-0.4-5.1-0.6-7.6-0.5
			c-6-0.1-12.1-0.1-18.1,0c-2.4,0-4.8,0.1-7.2,0.5c-4.7,0.6-8.5,4.2-9.4,8.9c-0.4,2.2-0.6,4.5-0.6,6.8c-0.1,6.8-0.1,13.5,0,20.3
			c0,2.1,0.1,4.2,0.5,6.3c0.9,4.8,3.6,7.9,8.4,9.2c2,0.5,4.1,0.7,6.1,0.7C36.5,69.9,40.3,70,44,70z"/>
		<path class="st1" d="M44,60.2c-9.2,0-16.7-7.5-16.6-16.7c0-9.2,7.5-16.7,16.7-16.6c9.2,0,16.7,7.5,16.6,16.7c0,0,0,0,0,0
			C60.6,52.8,53.2,60.2,44,60.2z M44.1,54.2c5.9,0,10.7-4.8,10.7-10.7s-4.8-10.7-10.7-10.7c-5.9,0-10.7,4.8-10.7,10.7c0,0,0,0,0,0
			C33.4,49.5,38.2,54.2,44.1,54.2C44.1,54.2,44.1,54.2,44.1,54.2z"/>
		<path class="st1" d="M61.3,30.3c-2.1,0-3.9-1.7-3.9-3.8c0-0.1,0-0.1,0-0.2c0-2.2,1.7-3.9,3.9-3.9c2.2,0,4,1.7,4,3.9
			C65.3,28.5,63.5,30.3,61.3,30.3C61.3,30.3,61.3,30.3,61.3,30.3z"/>
	</g>
</g>
</svg>
