<?xml version="1.0" encoding="utf-8"?>
<!-- Generator: Adobe Illustrator 27.1.1, SVG Export Plug-In . SVG Version: 6.00 Build 0)  -->
<svg version="1.1" id="Layer_1" xmlns="http://www.w3.org/2000/svg" xmlns:xlink="http://www.w3.org/1999/xlink" x="0px" y="0px"
	 viewBox="0 0 88 88" style="enable-background:new 0 0 88 88;" xml:space="preserve">
<style type="text/css">
	.st0{fill:#C9C9C9;}
	.st1{fill:#FFFFFF;}
</style>
<rect class="st0" width="88" height="88"/>
<g id="Layer_2_00000048502004722506893180000007308747415194160045_">
	<g id="Layer_1-2">
		<path class="st1" d="M44,75c-5.1,0-10.1-1.2-14.6-3.6c-0.4-0.2-0.8-0.3-1.3-0.1C23,72.6,17.9,74,12.7,75.4
			c-0.2,0.1-0.5,0.2-0.7,0.1c-0.2-0.2,0-0.5,0.1-0.7c1.3-5,2.7-9.9,4.1-14.9c0.2-0.5,0.1-1.1-0.2-1.5c-2.3-4.2-3.6-8.8-3.8-13.5
			c-0.5-8.3,2.3-16.4,7.8-22.6c4.5-5.3,10.6-8.9,17.4-10.3c9.7-2.2,19.8,0.4,27.3,6.9c5.6,4.6,9.4,11.1,10.7,18.3
			c2.1,10-0.9,20.4-8,27.8c-4.9,5.4-11.6,8.9-18.9,9.9C47,75,45.5,75.1,44,75z M44.3,69.5c0.9,0,1.9-0.1,2.8-0.2
			c6.3-0.7,12.1-3.7,16.3-8.4c5.2-5.5,7.7-13.1,6.8-20.7c-0.4-4.5-2.1-8.9-4.8-12.5c-6.1-8.5-16.6-12.6-26.8-10.4
			c-8,1.6-14.7,6.8-18.2,14.2c-2.3,4.4-3.1,9.5-2.6,14.4c0.4,4.1,1.8,8,4.1,11.5c0.3,0.5,0.4,1.1,0.3,1.6c-0.8,2.6-1.5,5.3-2.2,7.9
			c-0.2,0.8-0.2,0.9,0.6,0.7c2.8-0.7,5.5-1.4,8.3-2.2c0.5-0.2,1.1-0.1,1.5,0.2C34.6,68.2,39.4,69.5,44.3,69.5z"/>
		<path class="st1" d="M52.3,58.4c-2.3,0.1-4.5-0.8-6.6-1.7c-5.7-2.2-9.9-6.2-13.6-10.9c-1.5-1.8-2.8-3.9-3.7-6.1
			c-1.4-3.8-0.9-7.3,2-10.4c0.7-0.7,1.6-1.1,2.6-1.1c0.5,0,1.1,0,1.6,0.1c0.5,0.1,1,0.4,1.1,0.9c0.5,1.2,1,2.4,1.5,3.6
			c0.4,0.9,0.7,1.7,1.1,2.6c0.4,0.7,0.3,1.5-0.2,2.1c-0.6,0.8-1.2,1.6-1.8,2.3c-0.4,0.4-0.5,1.1-0.1,1.6c2.5,4.2,6.3,7.5,10.9,9.3
			c0.5,0.3,1.2,0.1,1.5-0.4c0.8-0.9,1.6-1.9,2.3-2.8s1-1,2-0.6c2.2,0.9,4.3,2,6.5,3.1c0.6,0.3,0.9,1,0.7,1.6
			c-0.3,3.8-3.5,6.8-7.4,6.7H52.3z"/>
	</g>
</g>
</svg>
