<?xml version="1.0" encoding="utf-8"?>
<!-- Generator: Adobe Illustrator 27.1.1, SVG Export Plug-In . SVG Version: 6.00 Build 0)  -->
<svg version="1.1" id="Layer_1" xmlns="http://www.w3.org/2000/svg" xmlns:xlink="http://www.w3.org/1999/xlink" x="0px" y="0px"
	 viewBox="0 0 88 88" style="enable-background:new 0 0 88 88;" xml:space="preserve">
<style type="text/css">
	.st0{fill:#C9C9C9;}
	.st1{fill:#FFFFFF;}
</style>
<rect class="st0" width="88" height="88"/>
<g id="Layer_2_00000128479681198068707830000013594919699522720678_">
	<g id="Layer_1-2">
		<path class="st1" d="M75.5,21.9c-2.6-5.4-6.9-8.4-12.7-9.5c-1.8-0.3-3.6-0.5-5.4-0.5c-0.3,0-0.5,0-0.8-0.1H33.8
			c-1.1,0-2.2,0.1-3.3,0.2c-5.5,0.4-10.3,2.4-13.8,7c-1.9,2.7-3.1,5.8-3.4,9.1c-0.4,4.7-0.5,9.4-0.4,14.1c0,0.4,0,0.7,0,1.1v1.5
			c0,0.3,0.1,0.7,0.1,1c0,3.8,0,7.7,0.2,11.5c0,3.6,0.9,7.1,2.6,10.3c2.6,4.3,6.9,7.3,11.9,8.1c2.4,0.4,4.9,0.6,7.4,0.6
			c6.8,0,13.6,0,20.5,0c3.1,0.1,6.3-0.3,9.3-1.1c6.6-2,10.5-6.5,12-13.1c0.4-1.9,0.6-3.7,0.6-5.6c0-8.4,0.1-16.9,0-25.3
			C77.4,27.9,76.8,24.8,75.5,21.9z M56.5,48l-14.9,8.6c-2.2,1.2-4.9,0.5-6.2-1.7c-0.4-0.7-0.6-1.5-0.6-2.3V35.5c0-2.5,2-4.5,4.5-4.5
			c0.8,0,1.6,0.2,2.3,0.6l14.9,8.6c2.2,1.2,2.9,4,1.7,6.2C57.7,47,57.1,47.6,56.5,48L56.5,48z"/>
	</g>
</g>
</svg>
